<svg width="280" height="266" viewBox="0 0 280 266" fill="none" xmlns="http://www.w3.org/2000/svg">
<path d="M111.625 111.5C96.3625 111.5 83.2969 106.066 72.4281 95.1969C61.5594 84.3281 56.125 71.2625 56.125 56C56.125 40.7375 61.5594 27.6719 72.4281 16.8031C83.2969 5.93438 96.3625 0.5 111.625 0.5C126.887 0.5 139.953 5.93438 150.822 16.8031C161.691 27.6719 167.125 40.7375 167.125 56C167.125 71.2625 161.691 84.3281 150.822 95.1969C139.953 106.066 126.887 111.5 111.625 111.5ZM255.925 261.35L221.237 226.663C216.381 229.438 211.178 231.75 205.628 233.6C200.078 235.45 194.181 236.375 187.937 236.375C170.594 236.375 155.854 230.302 143.718 218.157C131.582 206.012 125.509 191.272 125.5 173.938C125.5 156.594 131.573 141.849 143.718 129.704C155.863 117.559 170.603 111.491 187.937 111.5C205.281 111.5 220.026 117.573 232.171 129.718C244.316 141.863 250.384 156.603 250.375 173.938C250.375 180.181 249.45 186.078 247.6 191.628C245.75 197.178 243.437 202.381 240.662 207.238L275.35 241.925C277.894 244.469 279.166 247.706 279.166 251.638C279.166 255.569 277.894 258.806 275.35 261.35C272.806 263.894 269.569 265.166 265.637 265.166C261.706 265.166 258.469 263.894 255.925 261.35ZM187.937 208.625C197.65 208.625 205.859 205.272 212.566 198.566C219.272 191.859 222.625 183.65 222.625 173.938C222.625 164.225 219.272 156.016 212.566 149.309C205.859 142.603 197.65 139.25 187.937 139.25C178.225 139.25 170.016 142.603 163.309 149.309C156.603 156.016 153.25 164.225 153.25 173.938C153.25 183.65 156.603 191.859 163.309 198.566C170.016 205.272 178.225 208.625 187.937 208.625ZM28.375 222.5C20.7437 222.5 14.2086 219.781 8.76962 214.342C3.33062 208.903 0.615743 202.372 0.624993 194.75V183.997C0.624993 176.134 2.59062 168.85 6.52187 162.144C10.4531 155.438 15.8875 150.35 22.825 146.881C34.6187 140.869 47.9156 135.781 62.7156 131.619C77.5156 127.456 93.9344 125.375 111.972 125.375C107.347 132.544 103.818 140.235 101.385 148.449C98.9525 156.663 97.7407 165.159 97.75 173.938C97.75 182.494 98.9664 190.879 101.399 199.093C103.832 207.307 107.351 215.109 111.958 222.5H28.375Z" fill="url(#paint0_linear_617_24)"/>
<defs>
<linearGradient id="paint0_linear_617_24" x1="18.5" y1="139" x2="246" y2="142.5" gradientUnits="userSpaceOnUse">
<stop stop-color="#1D99F0"/>
<stop offset="1" stop-color="#1D52DA"/>
</linearGradient>
</defs>
</svg>
